Coordinates
version=1
nRows=13
nColumns=22
inDegrees=yes

Units are S.I. units (second, meters, Newtons, ...)
If the header above contains a line with 'inDegrees', this indicates whether rotational values are in degrees (yes) or radians (no).

endheader
time	pelvis_tilt	pelvis_list	pelvis_rotation	pelvis_tx	pelvis_ty	pelvis_tz	hip_flexion_r	hip_adduction_r	hip_rotation_r	knee_angle_r	ankle_angle_r	subtalar_angle_r	hip_flexion_l	hip_adduction_l	hip_rotation_l	knee_angle_l	ankle_angle_l	subtalar_angle_l	lumbar_extension	lumbar_bending	lumbar_rotation
      1.86000000	    -22.09654573	     -0.90003525	    -17.58741084	     -0.25552329	      0.88783599	      0.24566082	     32.36470042	     10.19967084	     -3.90286926	    -45.37899203	     37.12543394	     -5.37370517	     65.56623971	    -10.34179002	      1.16198133	    -71.07396975	     17.96732136	     -0.01381305	    -11.43617692	      4.08927304	     13.38671207
      1.87000000	    -21.82470425	     -0.72829768	    -17.66652974	     -0.23577947	      0.89086326	      0.24986151	     29.81440264	      9.97944788	     -3.22225946	    -43.59013569	     36.93287270	     -4.82624332	     65.79964711	    -10.40061095	      0.46175073	    -66.90526209	     17.10551049	      1.73400437	    -11.14973029	      3.72867609	     13.94132136
      1.88000000	    -21.48446990	     -0.57285374	    -17.72581275	     -0.21527155	      0.89414479	      0.25398473	     27.14210857	      9.71560609	     -2.46730009	    -41.76235509	     36.44019933	     -4.15170483	     65.60788351	    -10.40821205	     -0.38111540	    -62.54529596	     15.91573371	      3.92632274	    -10.85215203	      3.40083012	     14.44906604
      1.89000000	    -21.07211798	     -0.44269617	    -17.78105653	     -0.19403927	      0.89758552	      0.25801125	     24.40255115	      9.41247873	     -1.64771495	    -40.00017548	     35.61167328	     -3.31337889	     65.02935622	    -10.36481755	     -1.34692326	    -58.14111608	     14.46177264	      6.46733075	    -10.55960253	      3.11795003	     14.91972052
      1.90000000	    -20.61515321	     -0.34104567	    -17.86937624	     -0.17218387	      0.90102830	      0.26197026	     21.69799948	      9.09097152	     -0.75574348	    -38.43046522	     34.45932717	     -2.27700768	     64.15417715	    -10.30125265	     -2.42355158	    -53.86914543	     12.82536931	      9.21654740	    -10.24721821	      2.89352475	     15.37080567
      1.91000000	    -20.11441344	     -0.29457254	    -17.97141286	     -0.14979715	      0.90438920	      0.26579864	     19.10159492	      8.75803703	      0.12955803	    -37.17711954	     32.92661891	     -1.04823518	     63.04799413	    -10.20032458	     -3.54217824	    -49.89720139	     11.17881466	     11.87000251	     -9.93732444	      2.76189860	     15.77022364
      1.92000000	    -19.62997940	     -0.29582297	    -18.12422590	     -0.12710446	      0.90748668	      0.26958382	     16.76131939	      8.45437763	      1.04805973	    -36.37218279	     31.09998251	      0.36710883	     61.85115858	    -10.11310332	     -4.68864879	    -46.40575811	      9.61476231	     14.18275146	     -9.57800662	      2.71931814	     16.13704154
      1.93000000	    -19.19167814	     -0.34945717	    -18.32206915	     -0.10431670	      0.91021523	      0.27329658	     14.79276244	      8.20051660	      1.97514388	    -36.14262748	     28.99384535	      1.89803378	     60.65828736	    -10.04516422	     -5.80536787	    -43.53323800	      8.23913286	     15.82875907	     -9.16469489	      2.77896317	     16.48462790
      1.94000000	    -18.82383179	     -0.45017469	    -18.54271354	     -0.08160389	      0.91247860	      0.27695765	     13.27786932	      8.01460758	      2.89451196	    -36.55877247	     26.64569757	      3.44638244	     59.54828869	    -10.00499528	     -6.86694953	    -41.38509257	      7.14833079	     16.56224085	     -8.68933349	      2.93419998	     16.74859699
      1.95000000	    -18.52037545	     -0.57756487	    -18.77661207	     -0.05912689	      0.91422699	      0.28057726	     12.26752932	      7.89456120	      3.79595819	    -37.68086892	     24.09583212	      4.82807666	     58.54377956	     -9.98714026	     -7.84923199	    -40.00232312	      6.43676091	     16.19429179	     -8.17561475	      3.14739268	     16.92624247
      1.96000000	    -18.28797656	     -0.70746235	    -18.98886284	     -0.03700079	      0.91538494	      0.28412173	     11.79379661	      7.83266891	      4.64854348	    -39.50262570	     21.44052692	      5.91882014	     57.66541304	     -9.94772248	     -8.66643937	    -39.35753402	      6.13703999	     14.63793451	     -7.62223596	      3.38848898	     16.99284749
      1.97000000	    -18.07255584	     -0.81075791	    -19.13525304	     -0.01525939	      0.91597258	      0.28756021	     11.80786313	      7.78968787	      5.39413554	    -41.97733073	     18.76002384	      6.49513143	     56.86075844	     -9.82503239	     -9.27492930	    -39.37980866	      6.29616654	     12.05519138	     -7.08925996	      3.59742061	     16.88478805
      1.98000000	    -17.82857019	     -0.83879455	    -19.21664465	      0.00611295	      0.91600098	      0.29088634	     12.25807316	      7.70191815	      6.01120953	    -45.02887377	     16.20416391	      6.46740028	     56.07086523	     -9.57643425	     -9.68227981	    -39.95454257	      7.03284601	      8.82832587	     -6.60973277	      3.70258703	     16.60712778
